Coordinates
version=1
nRows=4
nColumns=63
inDegrees=yes

Units are S.I. units (second, meters, Newtons, ...)
If the header above contains a line with 'inDegrees', this indicates whether rotational values are in degrees (yes) or radians (no).

endheader
time	pelvis_tilt	pelvis_list	pelvis_rotation	pelvis_tx	pelvis_ty	pelvis_tz	hip_flexion_r	hip_adduction_r	hip_rotation_r	knee_angle_r	knee_angle_r_beta	ankle_angle_r	subtalar_angle_r	mtp_angle_r	hip_flexion_l	hip_adduction_l	hip_rotation_l	knee_angle_l	knee_angle_l_beta	ankle_angle_l	subtalar_angle_l	mtp_angle_l	L5_S1_Flex_Ext	L5_S1_Lat_Bending	L5_S1_axial_rotation	L4_L5_Flex_Ext	L4_L5_Lat_Bending	L4_L5_axial_rotation	L3_L4_Flex_Ext	L3_L4_Lat_Bending	L3_L4_axial_rotation	L2_L3_Flex_Ext	L2_L3_Lat_Bending	L2_L3_axial_rotation	L1_L2_Flex_Ext	L1_L2_Lat_Bending	L1_L2_axial_rotation	L1_T12_Flex_Ext	L1_T12_Lat_Bending	L1_T12_axial_rotation	Abs_r3	Abs_r2	Abs_r1	Abs_t1	Abs_t2	neck_flexion	neck_bending	neck_rotation	arm_flex_r	arm_add_r	arm_rot_r	elbow_flex_r	pro_sup_r	wrist_flex_r	wrist_dev_r	arm_flex_l	arm_add_l	arm_rot_l	elbow_flex_l	pro_sup_l	wrist_flex_l	wrist_dev_l
      0.00000000	     -1.60321517	     -4.65189582	    100.26524924	      0.18401704	      1.09270039	      0.50138028	      3.55951948	     -1.25553473	     -9.80841368	      1.18148779	      0.02062085	     15.35115585	     14.11919914	      0.00000000	      6.76465961	      0.57189308	      1.37498738	      4.95654060	      0.08650795	      8.49691203	     -0.39271461	      0.00000000	      0.15594028	     -0.26679974	     -0.42873688	      0.28959670	     -0.35484365	     -0.45553293	      0.25619429	     -0.64869688	     -0.45553293	      0.17822415	     -0.64869688	     -0.37514477	      0.14480615	     -0.54405803	     -0.34834871	      0.08910428	     -0.41327279	     -0.32155266	      1.11386585	     -3.01809199	     -2.38450590	      0.00000000	      0.00000000	     14.77069435	     -5.12263934	    -10.72855107	      6.87790180	     -0.18433480	     34.44847741	     57.00897915	      0.35363044	    -66.66475868	     34.45115601	     24.32688727	      9.02055909	    214.74271057	      0.34276277	     16.96019942	    -22.39467149	     -8.40891998
      0.01694915	     -1.56778032	     -4.80178906	    100.11516028	      0.18397610	      1.09323597	      0.50300228	      3.91296567	     -1.24659541	     -8.76913421	      1.06840852	      0.01864725	     15.34517486	     12.87864445	      0.00000000	      7.12580549	      0.51186040	     -1.13866765	      5.03212226	      0.08782710	      8.84383490	      2.89921077	      0.00000000	      0.16000159	     -0.25010499	     -0.51204819	      0.29713896	     -0.33263963	     -0.54405120	      0.26286662	     -0.60810527	     -0.54405120	      0.18286582	     -0.60810527	     -0.44804217	      0.14857748	     -0.51001409	     -0.41603916	      0.09142491	     -0.38741262	     -0.38403614	      1.14287539	     -2.82923763	     -2.84785843	      0.00000000	      0.00000000	     15.25638872	     -5.10808637	     -9.70051985	      7.26833486	      0.33053773	     33.96760461	     56.71256076	      0.33860498	    -66.18083960	     34.47834472	     22.84487351	      8.60038460	    216.03901479	      0.36420072	     11.20139853	    -24.07000868	     -8.60401987
      0.03389831	     -1.54942712	     -4.77685794	    100.18247202	      0.18316585	      1.09379092	      0.50413051	      4.00972257	     -1.29075392	     -8.78694412	      1.03235207	      0.01801794	     15.39898191	     12.84046050	      0.00000000	      7.23191183	      0.59753108	     -1.22276269	      5.04166716	      0.08799369	      8.79001799	      2.89544299	      0.00000000	      0.13596374	     -0.23548521	     -0.49805523	      0.25249826	     -0.31319533	     -0.52918368	      0.22337483	     -0.57255874	     -0.52918368	      0.15539296	     -0.57255874	     -0.43579832	      0.12625593	     -0.48020144	     -0.40466987	      0.07768968	     -0.36476659	     -0.37354142	      0.97117540	     -2.66385578	     -2.77003375	      0.00000000	      0.00000000	     15.41350354	     -5.11344473	     -9.73144450	      7.33783858	      0.23357667	     33.99072260	     56.44165482	      0.34031590	    -66.08620585	     34.45968705	     21.99491011	      8.70436909	    215.99453295	      0.37406843	     11.08715816	    -24.12549475	     -8.62276275
      0.05084746	     -1.41491797	     -5.07843978	    100.09442648	      0.18317584	      1.09384816	      0.50507729	      4.44863255	     -1.20540690	     -8.26934281	      0.98049184	      0.01711281	     15.19592013	     12.13374070	      0.00000000	      7.70047703	      0.50816319	     -2.56629487	      5.10443403	      0.08908918	      9.06869330	      4.27680233	      0.00000000	      0.16548652	     -0.21642719	     -0.54892521	      0.30732501	     -0.28784817	     -0.58323304	      0.27187780	     -0.52622108	     -0.58323304	      0.18913454	     -0.52622108	     -0.48030956	      0.15367078	     -0.44133833	     -0.44600174	      0.09455900	     -0.33524572	     -0.41169391	      1.18205365	     -2.44826769	     -3.05295737	      0.00000000	      0.00000000	     15.80740460	     -5.31996535	     -9.19376965	      7.92370676	     -0.36827982	     36.85669199	     55.61588641	      0.34781061	    -64.31850748	     34.43906642	     21.17101524	      8.37008634	    215.10281645	      0.39832593	      8.25687889	    -25.22490426	     -9.37442159
